<svg width="19" height="18" viewBox="0 0 19 18" fill="none" xmlns="http://www.w3.org/2000/svg">
<path d="M4 18C3.25 18 2.50833 17.8167 1.775 17.45C1.04167 17.0833 0.45 16.6 0 16C0.433333 16 0.875 15.829 1.325 15.487C1.775 15.145 2 14.6493 2 14C2 13.1667 2.29167 12.4583 2.875 11.875C3.45833 11.2917 4.16667 11 5 11C5.83333 11 6.54167 11.2917 7.125 11.875C7.70833 12.4583 8 13.1667 8 14C8 15.1 7.60833 16.0417 6.825 16.825C6.04167 17.6083 5.1 18 4 18ZM9.75 12L7 9.25001L15.95 0.300013C16.1333 0.116679 16.3627 0.0206795 16.638 0.0120128C16.9133 0.00334616 17.1507 0.099346 17.35 0.300013L18.7 1.65001C18.9 1.85001 19 2.08335 19 2.35001C19 2.61668 18.9 2.85001 18.7 3.05001L9.75 12Z" fill="black"/>
</svg>
