<svg width="48" height="48" viewBox="0 0 48 48" fill="none" xmlns="http://www.w3.org/2000/svg">
<path d="M24 42C18.9667 42 14.708 40.258 11.224 36.774C7.74 33.29 5.99867 29.032 6 24C6 19.4 7.5 15.408 10.5 12.024C13.5 8.64005 17.3333 6.66538 22 6.10005C22.8333 6.00005 23.4833 6.30005 23.95 7.00005C24.4167 7.70005 24.4 8.43338 23.9 9.20005C23.3333 10.0667 22.908 10.9834 22.624 11.95C22.34 12.9167 22.1987 13.9334 22.2 15C22.2 18 23.25 20.55 25.35 22.65C27.45 24.75 30 25.8 33 25.8C34.0333 25.8 35.0587 25.65 36.076 25.35C37.0933 25.05 38.0013 24.6334 38.8 24.1C39.5 23.6334 40.2167 23.6087 40.95 24.026C41.6833 24.4434 42 25.1014 41.9 26C41.4333 30.6 39.4753 34.4167 36.026 37.4501C32.5767 40.4834 28.568 42 24 42Z" fill="black"/>
</svg>
