<svg width="20" height="20" viewBox="0 0 20 20" fill="none" xmlns="http://www.w3.org/2000/svg">
<path d="M11.241 15.845C11.3825 15.9816 11.572 16.0571 11.7687 16.0553C11.9653 16.0535 12.1534 15.9745 12.2924 15.8354C12.4314 15.6963 12.5101 15.5081 12.5118 15.3115C12.5134 15.1148 12.4377 14.9254 12.301 14.784L11.241 15.845ZM5.216 7.69702C5.14678 7.62542 5.064 7.56833 4.97247 7.52906C4.88095 7.4898 4.78253 7.46916 4.68294 7.46834C4.58336 7.46752 4.48461 7.48655 4.39246 7.5243C4.3003 7.56205 4.21659 7.61778 4.1462 7.68823C4.07582 7.75869 4.02017 7.84245 3.9825 7.93464C3.94483 8.02683 3.9259 8.1256 3.92681 8.22518C3.92773 8.32477 3.94846 8.42317 3.98781 8.51466C4.02716 8.60614 4.08434 8.68887 4.156 8.75802L5.216 7.69802V7.69702ZM15.965 10.059L10.06 15.964L11.12 17.024L17.025 11.12L15.965 10.06V10.059ZM4.035 9.94002L9.94 4.03402L8.88 2.97502L2.975 8.87802L4.035 9.93802V9.94002ZM4.035 15.964C3.185 15.114 2.602 14.528 2.223 14.031C1.856 13.55 1.75 13.241 1.75 12.951L0.25 12.952C0.25 13.701 0.562 14.326 1.03 14.941C1.485 15.537 2.155 16.204 2.975 17.024L4.035 15.964ZM2.975 8.87802C2.155 9.69802 1.485 10.366 1.03 10.962C0.562 11.576 0.25 12.202 0.25 12.952L1.75 12.951C1.75 12.661 1.856 12.352 2.223 11.872C2.603 11.374 3.185 10.79 4.035 9.94002L2.975 8.87802ZM10.06 15.964C9.21 16.814 8.625 17.397 8.127 17.777C7.647 18.143 7.337 18.249 7.047 18.249V19.749C7.797 19.749 8.423 19.437 9.037 18.969C9.633 18.514 10.301 17.844 11.121 17.024L10.06 15.964ZM2.975 17.024C3.795 17.844 4.462 18.514 5.059 18.969C5.673 19.437 6.299 19.75 7.048 19.75V18.249C6.758 18.249 6.449 18.143 5.968 17.776C5.471 17.396 4.885 16.814 4.035 15.964L2.975 17.024ZM15.965 4.03402C16.815 4.88402 17.398 5.47002 17.778 5.96702C18.144 6.44802 18.25 6.75702 18.25 7.04702H19.75C19.75 6.29802 19.438 5.67202 18.97 5.05702C18.515 4.46102 17.845 3.79402 17.025 2.97402L15.965 4.03402ZM17.025 11.12C17.845 10.3 18.515 9.63202 18.97 9.03602C19.438 8.42202 19.75 7.79602 19.75 7.04602H18.25C18.25 7.33602 18.144 7.64602 17.777 8.12602C17.397 8.62402 16.815 9.20902 15.965 10.059L17.025 11.12ZM17.025 2.97402C16.205 2.15402 15.538 1.48402 14.941 1.02902C14.327 0.561023 13.701 0.249023 12.952 0.249023V1.74902C13.242 1.74902 13.551 1.85502 14.032 2.22202C14.529 2.60202 15.115 3.18402 15.965 4.03402L17.025 2.97402ZM9.94 4.03402C10.79 3.18402 11.375 2.60102 11.873 2.22202C12.353 1.85502 12.663 1.74902 12.953 1.74902V0.249023C12.203 0.249023 11.577 0.561023 10.963 1.02902C10.367 1.48402 9.699 2.15402 8.879 2.97402L9.94 4.03402ZM12.302 14.783L5.216 7.69802L4.156 8.75802L11.241 15.845L12.301 14.784L12.302 14.783Z" fill="black"/>
</svg>
