<svg width="26" height="27" viewBox="0 0 26 27" fill="none" xmlns="http://www.w3.org/2000/svg">
<path d="M13.5001 1.71875C13.5001 1.4784 13.4047 1.24789 13.2347 1.07793C13.0648 0.90798 12.8342 0.8125 12.5939 0.8125C12.3535 0.8125 12.123 0.90798 11.9531 1.07793C11.7831 1.24789 11.6876 1.4784 11.6876 1.71875V3.23763C11.2309 3.35363 10.7995 3.59106 10.4425 3.94813L1.42346 12.9671C0.921137 13.4688 0.634992 14.1471 0.626186 14.857C0.61738 15.5669 0.886612 16.2521 1.37633 16.7661L7.93758 23.6536C8.18756 23.9163 8.48758 24.1264 8.81996 24.2714C9.15234 24.4164 9.51038 24.4935 9.87299 24.498C10.2356 24.5026 10.5955 24.4346 10.9314 24.298C11.2673 24.1613 11.5725 23.9589 11.829 23.7026L21.0148 14.5168C21.2674 14.2643 21.4678 13.9645 21.6046 13.6346C21.7413 13.3046 21.8117 12.9509 21.8117 12.5938C21.8117 12.2366 21.7413 11.8829 21.6046 11.5529C21.4678 11.223 21.2674 10.9232 21.0148 10.6707L14.2868 3.94813C14.0587 3.72135 13.7924 3.53666 13.5001 3.40256V1.71875ZM19.4687 13.5H3.45346L11.6876 5.26581V7.15625C11.6876 7.3966 11.7831 7.62711 11.9531 7.79707C12.123 7.96702 12.3535 8.0625 12.5939 8.0625C12.8342 8.0625 13.0648 7.96702 13.2347 7.79707C13.4047 7.62711 13.5001 7.3966 13.5001 7.15625V5.72438L19.7333 11.9539C19.9032 12.1239 19.9987 12.3544 19.9987 12.5947C19.9987 12.835 19.9032 13.0654 19.7333 13.2354L19.4687 13.5ZM22.4195 17.5274C22.3242 17.4188 22.2068 17.3317 22.0753 17.2721C21.9437 17.2125 21.8009 17.1817 21.6564 17.1817C21.5119 17.1817 21.3691 17.2125 21.2375 17.2721C21.1059 17.3317 20.9886 17.4188 20.8933 17.5274L18.809 19.9108C16.6648 22.3577 18.403 26.1875 21.6564 26.1875C24.9098 26.1875 26.6462 22.3577 24.5056 19.9108L22.4213 17.5274H22.4195Z" fill="black"/>
</svg>
