<svg width="36" height="36" viewBox="0 0 36 36" fill="none" xmlns="http://www.w3.org/2000/svg">
<path d="M0.750003 31.4994V4.6661C0.750003 3.61193 1.12567 2.70918 1.877 1.95785C2.62834 1.20652 3.53045 0.831489 4.58334 0.832767H31.4167C32.4708 0.832767 33.3736 1.20843 34.1249 1.95977C34.8763 2.7111 35.2513 3.61321 35.25 4.6661V31.4994C35.25 32.5536 34.8743 33.4563 34.123 34.2077C33.3717 34.959 32.4696 35.334 31.4167 35.3328H4.58334C3.52917 35.3328 2.62642 34.9571 1.87509 34.2058C1.12375 33.4544 0.748725 32.5523 0.750003 31.4994ZM19.9167 19.9994V31.4994H31.4167V19.9994H19.9167ZM19.9167 16.1661H31.4167V4.6661H19.9167V16.1661ZM16.0833 16.1661V4.6661H4.58334V16.1661H16.0833ZM16.0833 19.9994H4.58334V31.4994H16.0833V19.9994Z" fill="black"/>
</svg>
