<svg width="48" height="48" viewBox="0 0 48 48" fill="none" xmlns="http://www.w3.org/2000/svg">
<path d="M22.5 7.5V3C22.5 2.60218 22.658 2.22064 22.9393 1.93934C23.2206 1.65804 23.6022 1.5 24 1.5C24.3978 1.5 24.7794 1.65804 25.0607 1.93934C25.342 2.22064 25.5 2.60218 25.5 3V7.5C25.5 7.89782 25.342 8.27936 25.0607 8.56066C24.7794 8.84196 24.3978 9 24 9C23.6022 9 23.2206 8.84196 22.9393 8.56066C22.658 8.27936 22.5 7.89782 22.5 7.5ZM24 12C21.6266 12 19.3065 12.7038 17.3332 14.0224C15.3598 15.3409 13.8217 17.2151 12.9134 19.4078C12.0052 21.6005 11.7676 24.0133 12.2306 26.3411C12.6936 28.6689 13.8365 30.8071 15.5147 32.4853C17.1929 34.1635 19.3311 35.3064 21.6589 35.7694C23.9867 36.2324 26.3995 35.9948 28.5922 35.0866C30.7849 34.1783 32.6591 32.6402 33.9776 30.6668C35.2962 28.6935 36 26.3734 36 24C35.9965 20.8185 34.7311 17.7682 32.4814 15.5186C30.2318 13.2689 27.1815 12.0035 24 12ZM10.9388 13.0613C11.2202 13.3427 11.602 13.5008 12 13.5008C12.398 13.5008 12.7798 13.3427 13.0612 13.0612C13.3427 12.7798 13.5008 12.398 13.5008 12C13.5008 11.602 13.3427 11.2202 13.0613 10.9388L10.0612 7.93875C9.77979 7.65729 9.39805 7.49917 9 7.49917C8.60195 7.49917 8.22021 7.65729 7.93875 7.93875C7.65729 8.22021 7.49917 8.60195 7.49917 9C7.49917 9.39805 7.65729 9.77979 7.93875 10.0612L10.9388 13.0613ZM10.9388 34.9388L7.93875 37.9388C7.65729 38.2202 7.49917 38.602 7.49917 39C7.49917 39.398 7.65729 39.7798 7.93875 40.0612C8.22021 40.3427 8.60195 40.5008 9 40.5008C9.39805 40.5008 9.77979 40.3427 10.0612 40.0612L13.0613 37.0612C13.2006 36.9219 13.3112 36.7564 13.3866 36.5743C13.462 36.3923 13.5008 36.1971 13.5008 36C13.5008 35.8029 13.462 35.6077 13.3866 35.4257C13.3112 35.2436 13.2006 35.0781 13.0613 34.9388C12.9219 34.7994 12.7564 34.6888 12.5743 34.6134C12.3923 34.538 12.1971 34.4992 12 34.4992C11.8029 34.4992 11.6077 34.538 11.4257 34.6134C11.2436 34.6888 11.0781 34.7994 10.9388 34.9388ZM36 13.5C36.197 13.5002 36.3922 13.4615 36.5743 13.3862C36.7564 13.3109 36.9218 13.2005 37.0612 13.0613L40.0612 10.0612C40.3427 9.77979 40.5008 9.39805 40.5008 9C40.5008 8.60195 40.3427 8.22021 40.0612 7.93875C39.7798 7.65729 39.398 7.49917 39 7.49917C38.602 7.49917 38.2202 7.65729 37.9388 7.93875L34.9388 10.9388C34.7287 11.1485 34.5857 11.4159 34.5277 11.707C34.4697 11.9982 34.4994 12.3 34.6131 12.5742C34.7267 12.8484 34.9191 13.0828 35.166 13.2476C35.4129 13.4124 35.7032 13.5002 36 13.5ZM37.0612 34.9388C36.7798 34.6573 36.398 34.4992 36 34.4992C35.602 34.4992 35.2202 34.6573 34.9388 34.9388C34.6573 35.2202 34.4992 35.602 34.4992 36C34.4992 36.398 34.6573 36.7798 34.9388 37.0612L37.9388 40.0612C38.0781 40.2006 38.2436 40.3112 38.4257 40.3866C38.6077 40.462 38.8029 40.5008 39 40.5008C39.1971 40.5008 39.3923 40.462 39.5743 40.3866C39.7564 40.3112 39.9219 40.2006 40.0612 40.0612C40.2006 39.9219 40.3112 39.7564 40.3866 39.5743C40.462 39.3923 40.5008 39.1971 40.5008 39C40.5008 38.8029 40.462 38.6077 40.3866 38.4257C40.3112 38.2436 40.2006 38.0781 40.0612 37.9388L37.0612 34.9388ZM9 24C9 23.6022 8.84196 23.2206 8.56066 22.9393C8.27936 22.658 7.89782 22.5 7.5 22.5H3C2.60218 22.5 2.22064 22.658 1.93934 22.9393C1.65804 23.2206 1.5 23.6022 1.5 24C1.5 24.3978 1.65804 24.7794 1.93934 25.0607C2.22064 25.342 2.60218 25.5 3 25.5H7.5C7.89782 25.5 8.27936 25.342 8.56066 25.0607C8.84196 24.7794 9 24.3978 9 24ZM24 39C23.6022 39 23.2206 39.158 22.9393 39.4393C22.658 39.7206 22.5 40.1022 22.5 40.5V45C22.5 45.3978 22.658 45.7794 22.9393 46.0607C23.2206 46.342 23.6022 46.5 24 46.5C24.3978 46.5 24.7794 46.342 25.0607 46.0607C25.342 45.7794 25.5 45.3978 25.5 45V40.5C25.5 40.1022 25.342 39.7206 25.0607 39.4393C24.7794 39.158 24.3978 39 24 39ZM45 22.5H40.5C40.1022 22.5 39.7206 22.658 39.4393 22.9393C39.158 23.2206 39 23.6022 39 24C39 24.3978 39.158 24.7794 39.4393 25.0607C39.7206 25.342 40.1022 25.5 40.5 25.5H45C45.3978 25.5 45.7794 25.342 46.0607 25.0607C46.342 24.7794 46.5 24.3978 46.5 24C46.5 23.6022 46.342 23.2206 46.0607 22.9393C45.7794 22.658 45.3978 22.5 45 22.5Z" fill="black"/>
</svg>
