<svg width="30" height="30" viewBox="0 0 30 30" fill="none" xmlns="http://www.w3.org/2000/svg">
<path d="M22.0067 2.0332C24.0013 1.04578 24.9987 0.551365 25.673 0.999032C26.3473 1.44812 26.2524 2.5432 26.0598 4.73053L26.0102 5.2972C25.9563 5.91912 25.9294 6.23078 26.0258 6.51128C26.1235 6.79461 26.3346 7.0142 26.7553 7.4562L27.1393 7.85853C28.6239 9.41261 29.3648 10.1904 29.1212 10.9865C28.8761 11.7827 27.8079 12.0703 25.6702 12.6469L25.1177 12.7956C24.5085 12.9599 24.2053 13.0407 23.9631 13.2319C23.7208 13.4218 23.5664 13.6994 23.2604 14.2519L22.9813 14.7563C21.9033 16.7056 21.3635 17.6803 20.539 17.7228C19.7131 17.7667 19.1478 16.8501 18.0188 15.0184L17.7269 14.5438C17.4053 14.0239 17.2453 13.7646 16.9988 13.5989C16.7508 13.4345 16.4463 13.3849 15.8343 13.2858L15.2789 13.1951C13.1284 12.8452 12.0532 12.6709 11.7883 11.9003C11.5219 11.131 12.2416 10.2768 13.6823 8.56828L14.0535 8.12628C14.4643 7.64036 14.6683 7.39811 14.7576 7.10628C14.8468 6.81445 14.8114 6.50703 14.7406 5.8922L14.6754 5.3312C14.4247 3.16653 14.3 2.0842 14.9616 1.5657C15.6232 1.04578 16.6333 1.43395 18.652 2.21028L19.1733 2.41145C19.7471 2.63245 20.0347 2.74295 20.3364 2.72595C20.6396 2.71178 20.9229 2.57012 21.4896 2.28962L22.0067 2.03462V2.0332ZM10.8136 14.0366C6.48568 16.7991 2.63235 21.7957 0.960683 26.3786C0.418099 27.8661 1.66902 29.168 3.26418 29.168H4.72902C4.72902 28.6708 4.84518 28.0531 5.01802 27.4043C5.1951 26.7384 5.4501 25.9692 5.76885 25.1461C6.49472 23.2843 7.37222 21.4852 8.39252 19.767C9.47343 17.9537 10.7583 16.1857 12.1679 14.8569L12.2728 14.7591C11.7457 14.6112 11.2508 14.3661 10.8136 14.0366ZM15.0282 15.3074C14.5763 15.5836 14.1073 15.9491 13.6257 16.4039C12.4116 17.5471 11.2428 19.1352 10.2186 20.855C9.25926 22.4701 8.43388 24.1612 7.75077 25.9111C7.45327 26.6804 7.22377 27.3745 7.07077 27.9511C6.91493 28.5433 6.85402 28.9484 6.85402 29.168H10.8674C10.8674 27.5757 11.4199 24.6262 12.4173 21.671C13.1497 19.5035 14.164 17.2043 15.4702 15.381L15.0282 15.3074ZM16.8387 17.1434C15.8824 18.6224 15.0678 20.4669 14.4303 22.351C13.4698 25.1943 12.9924 27.8973 12.9924 29.168H14.8185C16.4137 29.168 17.6972 27.8831 17.8034 26.3064C17.9876 23.5935 18.4055 21.1497 18.8829 19.4114C18.4629 19.1556 18.0884 18.8315 17.7751 18.4524C17.4352 18.0369 17.1214 17.5997 16.8387 17.1434Z" fill="black"/>
</svg>
