<svg width="19" height="19" viewBox="0 0 19 19" fill="none" xmlns="http://www.w3.org/2000/svg">
<path fill-rule="evenodd" clip-rule="evenodd" d="M17.4769 1.51094C17.7555 1.78952 17.9765 2.12026 18.1273 2.48427C18.2781 2.84828 18.3558 3.23843 18.3558 3.63244C18.3558 4.02645 18.2781 4.4166 18.1273 4.78061C17.9765 5.14462 17.7555 5.47536 17.4769 5.75394L15.9439 7.28694C16.2122 7.84549 16.3004 8.47359 16.1963 9.08445C16.0923 9.6953 15.801 10.2588 15.3629 10.6969L14.6479 11.4109C14.2728 11.7859 13.7642 11.9965 13.2339 11.9965C12.7036 11.9965 12.1949 11.7859 11.8199 11.4109L5.33489 17.8959C5.05626 18.1747 4.72544 18.3957 4.36134 18.5466C3.99724 18.6974 3.60699 18.775 3.21289 18.7749H1.41289C1.09463 18.7749 0.789406 18.6485 0.564363 18.4235C0.339319 18.1984 0.212891 17.8932 0.212891 17.5749V15.7749C0.212975 15.3808 0.290736 14.9905 0.441732 14.6264C0.592727 14.2623 0.813995 13.9315 1.09289 13.6529L7.57689 7.16794C7.20195 6.79288 6.99132 6.28427 6.99132 5.75394C6.99132 5.22361 7.20195 4.71499 7.57689 4.33994L8.29089 3.62594C8.72896 3.18763 9.29236 2.89621 9.90322 2.79195C10.5141 2.68769 11.1422 2.77574 11.7009 3.04394L13.2339 1.51094C13.5125 1.23231 13.8432 1.01129 14.2072 0.86049C14.5712 0.709694 14.9614 0.63208 15.3554 0.63208C15.7494 0.63208 16.1395 0.709694 16.5036 0.86049C16.8676 1.01129 17.1983 1.23231 17.4769 1.51094ZM8.99189 8.58194L2.50589 15.0679L2.41889 15.1669C2.28527 15.3415 2.21287 15.5551 2.21289 15.7749V16.7749H3.21289L3.34489 16.7659C3.56254 16.737 3.7646 16.6372 3.91989 16.4819L10.4059 9.99594L8.99189 8.58194ZM16.0619 2.92494C15.8744 2.73747 15.6201 2.63215 15.3549 2.63215C15.0897 2.63215 14.8354 2.73747 14.6479 2.92494L12.5339 5.03994C12.3445 5.22924 12.0877 5.33558 11.8199 5.33558C11.5521 5.33558 11.2953 5.22924 11.1059 5.03994C10.9202 4.8543 10.6684 4.75001 10.4059 4.75001C10.1433 4.75001 9.89155 4.8543 9.70589 5.03994L8.99189 5.75394L13.2339 9.99594L13.9479 9.28194C14.1335 9.09628 14.2378 8.84449 14.2378 8.58194C14.2378 8.31939 14.1335 8.0676 13.9479 7.88194C13.7586 7.69254 13.6522 7.43572 13.6522 7.16794C13.6522 6.90016 13.7586 6.64334 13.9479 6.45394L16.0629 4.33994C16.1559 4.24707 16.2296 4.13678 16.28 4.01538C16.3303 3.89398 16.3562 3.76385 16.3562 3.63244C16.3562 3.50102 16.3303 3.3709 16.28 3.2495C16.2296 3.1281 16.1549 3.01781 16.0619 2.92494Z" fill="black"/>
</svg>
