<svg width="27" height="27" viewBox="0 0 27 27" fill="none" xmlns="http://www.w3.org/2000/svg">
<path d="M13.5 19.3094C13.2833 19.3094 13.0802 19.2758 12.8906 19.2086C12.701 19.1415 12.525 19.0261 12.3625 18.8625L6.5125 13.0125C6.21459 12.7146 6.06563 12.3354 6.06563 11.875C6.06563 11.4146 6.21459 11.0354 6.5125 10.7375C6.81042 10.4396 7.19663 10.2841 7.67113 10.2711C8.14563 10.2581 8.53129 10.4 8.82813 10.6969L11.875 13.7438V2.12501C11.875 1.66459 12.031 1.27838 12.343 0.966381C12.655 0.654381 13.0407 0.498922 13.5 0.500006C13.9604 0.500006 14.3466 0.656006 14.6586 0.968006C14.9706 1.28001 15.1261 1.66567 15.125 2.12501V13.7438L18.1719 10.6969C18.4698 10.399 18.856 10.2565 19.3305 10.2695C19.805 10.2825 20.1907 10.4385 20.4875 10.7375C20.7854 11.0354 20.9344 11.4146 20.9344 11.875C20.9344 12.3354 20.7854 12.7146 20.4875 13.0125L14.6375 18.8625C14.475 19.025 14.299 19.1404 14.1094 19.2086C13.9198 19.2769 13.7167 19.3105 13.5 19.3094ZM3.75 26.5C2.85625 26.5 2.09088 26.1815 1.45388 25.5445C0.816878 24.9075 0.498919 24.1427 0.500003 23.25V20C0.500003 19.5396 0.656003 19.1534 0.968003 18.8414C1.28 18.5294 1.66567 18.3739 2.125 18.375C2.58542 18.375 2.97163 18.531 3.28363 18.843C3.59563 19.155 3.75109 19.5407 3.75 20V23.25H23.25V20C23.25 19.5396 23.406 19.1534 23.718 18.8414C24.03 18.5294 24.4157 18.3739 24.875 18.375C25.3354 18.375 25.7216 18.531 26.0336 18.843C26.3456 19.155 26.5011 19.5407 26.5 20V23.25C26.5 24.1438 26.1815 24.9091 25.5445 25.5461C24.9075 26.1831 24.1427 26.5011 23.25 26.5H3.75Z" fill="black"/>
</svg>
